<svg width="570" height="320" viewBox="0 0 570 320" fill="none" xmlns="http://www.w3.org/2000/svg" role="img" aria-labelledby="title desc">
  <title id="title">AI Resume Screening Workflow</title>
  <desc id="desc">AI hiring workflow that screens resumes against job descriptions, scores candidates, and supports shortlisting.</desc>
  <defs>
    <linearGradient id="bg3" x1="0" y1="0" x2="570" y2="320">
      <stop stop-color="#111827"/><stop offset="1" stop-color="#090F1A"/>
    </linearGradient>
    <linearGradient id="accent3" x1="0" y1="0" x2="1" y2="1">
      <stop stop-color="#22c55e"/><stop offset="1" stop-color="#FF6B00"/>
    </linearGradient>
  </defs>
  <rect x=".75" y=".75" width="568.5" height="318.5" rx="20" fill="url(#bg3)" stroke="#334155" stroke-width="1.5"/>
  <rect x="0" y="0" width="7" height="320" rx="3.5" fill="#22c55e"/>
  <g font-family="Segoe UI, Inter, Arial, sans-serif">
    <text x="28" y="42" fill="#22c55e" font-size="11" font-weight="800" letter-spacing="1.6">HR AUTOMATION</text>
    <rect x="455" y="22" width="87" height="28" rx="14" fill="#22c55e" fill-opacity=".12" stroke="#22c55e" stroke-opacity=".55"/>
    <circle cx="472" cy="36" r="4" fill="#94A3B8"/>
    <text x="484" y="40" fill="#E2E8F0" font-size="10" font-weight="800">DEMO SOON</text>
    <text x="28" y="91" fill="#F8FAFC" font-size="25" font-weight="800">AI Resume Screening Workflow</text>
    <text x="28" y="132" fill="#94A3B8" font-size="14">AI hiring workflow that screens resumes against job</text>
<text x="28" y="156" fill="#94A3B8" font-size="14">descriptions, scores candidates, and supports shortlisting.</text>
    <rect x="28" y="250" width="122" height="28" rx="8" fill="#172033" stroke="#334155"/>
      <text x="40" y="268" fill="#CBD5E1" font-family="Segoe UI, Arial" font-size="11" font-weight="600">Resume Parsing</text>
<rect x="159" y="250" width="94" height="28" rx="8" fill="#172033" stroke="#334155"/>
      <text x="171" y="268" fill="#CBD5E1" font-family="Segoe UI, Arial" font-size="11" font-weight="600">AI Scoring</text>
<rect x="262" y="250" width="115" height="28" rx="8" fill="#172033" stroke="#334155"/>
      <text x="274" y="268" fill="#CBD5E1" font-family="Segoe UI, Arial" font-size="11" font-weight="600">HR Automation</text>
    <text x="446" y="298" fill="#22c55e" font-size="12" font-weight="800">OPEN PROJECT  ↗</text>
  </g>
</svg>