<svg width="570" height="320" viewBox="0 0 570 320" fill="none" xmlns="http://www.w3.org/2000/svg" role="img" aria-labelledby="title desc">
  <title id="title">Document Intelligence RAG</title>
  <desc id="desc">RAG-powered document assistant that ingests documents, retrieves relevant chunks, and answers questions.</desc>
  <defs>
    <linearGradient id="bg1" x1="0" y1="0" x2="570" y2="320">
      <stop stop-color="#111827"/><stop offset="1" stop-color="#090F1A"/>
    </linearGradient>
    <linearGradient id="accent1" x1="0" y1="0" x2="1" y2="1">
      <stop stop-color="#38bdf8"/><stop offset="1" stop-color="#FF6B00"/>
    </linearGradient>
  </defs>
  <rect x=".75" y=".75" width="568.5" height="318.5" rx="20" fill="url(#bg1)" stroke="#334155" stroke-width="1.5"/>
  <rect x="0" y="0" width="7" height="320" rx="3.5" fill="#38bdf8"/>
  <g font-family="Segoe UI, Inter, Arial, sans-serif">
    <text x="28" y="42" fill="#38bdf8" font-size="11" font-weight="800" letter-spacing="1.6">KNOWLEDGE SYSTEM</text>
    <rect x="455" y="22" width="87" height="28" rx="14" fill="#38bdf8" fill-opacity=".12" stroke="#38bdf8" stroke-opacity=".55"/>
    <circle cx="472" cy="36" r="4" fill="#22C55E"/>
    <text x="484" y="40" fill="#E2E8F0" font-size="10" font-weight="800">LIVE</text>
    <text x="28" y="91" fill="#F8FAFC" font-size="25" font-weight="800">Document Intelligence RAG</text>
    <text x="28" y="132" fill="#94A3B8" font-size="14">RAG-powered document assistant that ingests documents,</text>
<text x="28" y="156" fill="#94A3B8" font-size="14">retrieves relevant chunks, and answers questions.</text>
    <rect x="28" y="250" width="70" height="28" rx="8" fill="#172033" stroke="#334155"/>
      <text x="40" y="268" fill="#CBD5E1" font-family="Segoe UI, Arial" font-size="11" font-weight="600">RAG</text>
<rect x="107" y="250" width="115" height="28" rx="8" fill="#172033" stroke="#334155"/>
      <text x="119" y="268" fill="#CBD5E1" font-family="Segoe UI, Arial" font-size="11" font-weight="600">Vector Search</text>
<rect x="231" y="250" width="94" height="28" rx="8" fill="#172033" stroke="#334155"/>
      <text x="243" y="268" fill="#CBD5E1" font-family="Segoe UI, Arial" font-size="11" font-weight="600">Embeddings</text>
    <text x="446" y="298" fill="#38bdf8" font-size="12" font-weight="800">OPEN PROJECT  ↗</text>
  </g>
</svg>