<svg width="570" height="320" viewBox="0 0 570 320" fill="none" xmlns="http://www.w3.org/2000/svg" role="img" aria-labelledby="title desc">
  <title id="title">Smart Email Classification</title>
  <desc id="desc">AI email automation system that classifies emails, extracts intent, logs structured data, and prepares automation actions.</desc>
  <defs>
    <linearGradient id="bg2" x1="0" y1="0" x2="570" y2="320">
      <stop stop-color="#111827"/><stop offset="1" stop-color="#090F1A"/>
    </linearGradient>
    <linearGradient id="accent2" x1="0" y1="0" x2="1" y2="1">
      <stop stop-color="#a78bfa"/><stop offset="1" stop-color="#FF6B00"/>
    </linearGradient>
  </defs>
  <rect x=".75" y=".75" width="568.5" height="318.5" rx="20" fill="url(#bg2)" stroke="#334155" stroke-width="1.5"/>
  <rect x="0" y="0" width="7" height="320" rx="3.5" fill="#a78bfa"/>
  <g font-family="Segoe UI, Inter, Arial, sans-serif">
    <text x="28" y="42" fill="#a78bfa" font-size="11" font-weight="800" letter-spacing="1.6">WORKFLOW AUTOMATION</text>
    <rect x="455" y="22" width="87" height="28" rx="14" fill="#a78bfa" fill-opacity=".12" stroke="#a78bfa" stroke-opacity=".55"/>
    <circle cx="472" cy="36" r="4" fill="#94A3B8"/>
    <text x="484" y="40" fill="#E2E8F0" font-size="10" font-weight="800">DEMO SOON</text>
    <text x="28" y="91" fill="#F8FAFC" font-size="25" font-weight="800">Smart Email Classification</text>
    <text x="28" y="132" fill="#94A3B8" font-size="14">AI email automation system that classifies emails, extracts</text>
<text x="28" y="156" fill="#94A3B8" font-size="14">intent, logs structured data, and prepares automation actions.</text>
    <rect x="28" y="250" width="87" height="28" rx="8" fill="#172033" stroke="#334155"/>
      <text x="40" y="268" fill="#CBD5E1" font-family="Segoe UI, Arial" font-size="11" font-weight="600">Gmail API</text>
<rect x="124" y="250" width="70" height="28" rx="8" fill="#172033" stroke="#334155"/>
      <text x="136" y="268" fill="#CBD5E1" font-family="Segoe UI, Arial" font-size="11" font-weight="600">n8n</text>
<rect x="203" y="250" width="150" height="28" rx="8" fill="#172033" stroke="#334155"/>
      <text x="215" y="268" fill="#CBD5E1" font-family="Segoe UI, Arial" font-size="11" font-weight="600">LLM Classification</text>
    <text x="446" y="298" fill="#a78bfa" font-size="12" font-weight="800">OPEN PROJECT  ↗</text>
  </g>
</svg>