<svg width="1200" height="420" viewBox="0 0 1200 420" fill="none" xmlns="http://www.w3.org/2000/svg" role="img" aria-labelledby="title desc">
  <title id="title">Kovi Varun Jaswanth Sai — AI Automation Command Center</title>
  <desc id="desc">Premium dark dashboard banner for an AI Automation Engineer and Agentic AI Builder.</desc>
  <defs>
    <linearGradient id="bg" x1="40" y1="20" x2="1160" y2="400" gradientUnits="userSpaceOnUse">
      <stop stop-color="#0B1220"/>
      <stop offset=".55" stop-color="#111827"/>
      <stop offset="1" stop-color="#080D16"/>
    </linearGradient>
    <linearGradient id="orange" x1="0" y1="0" x2="1" y2="1">
      <stop stop-color="#FFB15C"/>
      <stop offset="1" stop-color="#FF6B00"/>
    </linearGradient>
    <radialGradient id="glow" cx="0" cy="0" r="1" gradientTransform="translate(972 178) rotate(90) scale(200 260)" gradientUnits="userSpaceOnUse">
      <stop stop-color="#FF7A18" stop-opacity=".18"/>
      <stop offset="1" stop-color="#FF7A18" stop-opacity="0"/>
    </radialGradient>
    <filter id="shadow" x="-20%" y="-20%" width="140%" height="140%">
      <feDropShadow dx="0" dy="18" stdDeviation="22" flood-color="#000" flood-opacity=".35"/>
    </filter>
    <pattern id="grid" width="36" height="36" patternUnits="userSpaceOnUse">
      <path d="M36 0H0V36" stroke="#94A3B8" stroke-opacity=".055"/>
    </pattern>
  </defs>
  <rect width="1200" height="420" rx="28" fill="url(#bg)"/>
  <rect width="1200" height="420" rx="28" fill="url(#grid)"/>
  <rect width="1200" height="420" rx="28" fill="url(#glow)"/>
  <rect x=".75" y=".75" width="1198.5" height="418.5" rx="27.25" stroke="#334155" stroke-opacity=".8" stroke-width="1.5"/>

  <g font-family="Segoe UI, Inter, Arial, sans-serif">
    <rect x="64" y="54" width="226" height="32" rx="16" fill="#FF7A18" fill-opacity=".1" stroke="#FF7A18" stroke-opacity=".45"/>
    <circle cx="82" cy="70" r="4" fill="#FF7A18"/>
    <text x="96" y="75" fill="#FDBA74" font-size="12" font-weight="700" letter-spacing="1.8">SYSTEM ONLINE · BUILD MODE</text>

    <text x="64" y="146" fill="#F8FAFC" font-size="49" font-weight="800" letter-spacing="-1.5">KOVI VARUN</text>
    <text x="64" y="202" fill="#F8FAFC" font-size="49" font-weight="800" letter-spacing="-1.5">JASWANTH SAI</text>
    <rect x="64" y="226" width="90" height="5" rx="2.5" fill="url(#orange)"/>
    <text x="64" y="270" fill="#FF8A2A" font-size="21" font-weight="700">AI AUTOMATION ENGINEER</text>
    <text x="64" y="304" fill="#CBD5E1" font-size="17">Agentic AI · RAG Systems · LLM Applications · Workflow Engineering</text>

    <g transform="translate(64 338)">
      <rect width="142" height="38" rx="10" fill="#172033" stroke="#334155"/>
      <text x="18" y="24" fill="#E2E8F0" font-size="12" font-weight="700">05 AI SYSTEMS</text>
      <rect x="154" width="148" height="38" rx="10" fill="#172033" stroke="#334155"/>
      <text x="172" y="24" fill="#E2E8F0" font-size="12" font-weight="700">03 LIVE DEMOS</text>
      <rect x="314" width="170" height="38" rx="10" fill="#172033" stroke="#334155"/>
      <text x="332" y="24" fill="#E2E8F0" font-size="12" font-weight="700">AUTOMATION FIRST</text>
    </g>
  </g>

  <g transform="translate(744 52)" filter="url(#shadow)">
    <rect width="392" height="316" rx="22" fill="#0D1524" stroke="#334155"/>
    <rect x="22" y="22" width="348" height="46" rx="12" fill="#131E30" stroke="#26364D"/>
    <circle cx="44" cy="45" r="5" fill="#22C55E"/>
    <text x="58" y="50" fill="#CBD5E1" font-family="Segoe UI, Arial" font-size="12" font-weight="700" letter-spacing="1.4">AGENT ORCHESTRATION</text>
    <text x="324" y="50" fill="#64748B" font-family="Segoe UI, Arial" font-size="11">v1.0</text>

    <g font-family="Segoe UI, Arial" font-size="11">
      <rect x="22" y="88" width="104" height="72" rx="12" fill="#131E30" stroke="#334155"/>
      <text x="38" y="112" fill="#94A3B8">INPUT</text>
      <text x="38" y="138" fill="#F8FAFC" font-size="14" font-weight="700">Context</text>
      <rect x="144" y="88" width="104" height="72" rx="12" fill="#241A14" stroke="#FF7A18" stroke-opacity=".65"/>
      <text x="160" y="112" fill="#FDBA74">REASON</text>
      <text x="160" y="138" fill="#F8FAFC" font-size="14" font-weight="700">Agents</text>
      <rect x="266" y="88" width="104" height="72" rx="12" fill="#131E30" stroke="#334155"/>
      <text x="282" y="112" fill="#94A3B8">OUTPUT</text>
      <text x="282" y="138" fill="#F8FAFC" font-size="14" font-weight="700">Actions</text>
      <path d="M126 124H144M248 124H266" stroke="#FF7A18" stroke-width="2" stroke-dasharray="4 4"/>
    </g>

    <g transform="translate(22 182)">
      <rect width="348" height="112" rx="14" fill="#101A2A" stroke="#26364D"/>
      <text x="18" y="26" fill="#64748B" font-family="Segoe UI, Arial" font-size="10" font-weight="700" letter-spacing="1.5">AUTOMATION SIGNAL</text>
      <path d="M18 82C48 80 52 48 82 58C112 68 120 34 152 44C184 54 184 76 218 62C252 48 258 22 292 36C314 45 324 42 330 31" stroke="url(#orange)" stroke-width="3" stroke-linecap="round"/>
      <path d="M18 92H330" stroke="#334155"/>
      <circle cx="292" cy="36" r="5" fill="#FF7A18"/>
      <circle cx="292" cy="36" r="10" stroke="#FF7A18" stroke-opacity=".25"/>
    </g>
  </g>
</svg>