<svg width="1200" height="390" viewBox="0 0 1200 390" fill="none" xmlns="http://www.w3.org/2000/svg" role="img" aria-labelledby="title desc">
  <title id="title">Kovi Varun Jaswanth Sai — AI Automation Engineer</title>
  <desc id="desc">A light editorial profile banner generated from repository project and skill data.</desc>
  <defs>
    <filter id="shadow" x="-10%" y="-10%" width="120%" height="130%">
      <feDropShadow dx="0" dy="10" stdDeviation="18" flood-color="#111114" flood-opacity=".07"/>
    </filter>
  </defs>
  <rect width="1200" height="390" rx="28" fill="#FAFAF8"/>
  <rect x=".75" y=".75" width="1198.5" height="388.5" rx="27.25" stroke="#E5E5E2" stroke-width="1.5"/>
  <circle cx="1090" cy="58" r="92" fill="#FF6B35" fill-opacity=".06"/>
  <circle cx="1142" cy="328" r="148" fill="#111114" fill-opacity=".025"/>

  <g font-family="Inter, Segoe UI, Arial, sans-serif">
    <rect x="58" y="48" width="206" height="32" rx="16" fill="#FFF0EA"/>
    <circle cx="78" cy="64" r="4" fill="#FF6B35"/>
    <text x="92" y="69" fill="#D94D18" font-family="ui-monospace, SFMono-Regular, Consolas, monospace" font-size="11" font-weight="700" letter-spacing="1.2">STATUS: BUILDING</text>

    <text x="58" y="151" fill="#111114" font-size="50" font-weight="750" letter-spacing="-1.8">Kovi Varun Jaswanth Sai</text>
    <text x="58" y="204" fill="#FF6B35" font-size="24" font-weight="700">AI Automation Engineer</text>
    <text x="58" y="240" fill="#6B7280" font-size="17">Agentic AI · RAG systems · LLM applications · workflow engineering</text>

    <g transform="translate(58 292)">
      <rect width="158" height="48" rx="12" fill="#F0F0EE" stroke="#E5E5E2"/>
      <text x="18" y="20" fill="#6B7280" font-family="ui-monospace, Consolas, monospace" font-size="9" font-weight="700" letter-spacing="1">SHIPPED</text>
      <text x="18" y="39" fill="#111114" font-size="16" font-weight="750">3 live systems</text>
      <rect x="170" width="166" height="48" rx="12" fill="#F0F0EE" stroke="#E5E5E2"/>
      <text x="188" y="20" fill="#6B7280" font-family="ui-monospace, Consolas, monospace" font-size="9" font-weight="700" letter-spacing="1">IN DEVELOPMENT</text>
      <text x="188" y="39" fill="#111114" font-size="16" font-weight="750">2 workflows</text>
      <rect x="348" width="170" height="48" rx="12" fill="#F0F0EE" stroke="#E5E5E2"/>
      <text x="366" y="20" fill="#6B7280" font-family="ui-monospace, Consolas, monospace" font-size="9" font-weight="700" letter-spacing="1">TOOLKIT</text>
      <text x="366" y="39" fill="#111114" font-size="16" font-weight="750">25 capabilities</text>
    </g>
  </g>

  <g transform="translate(790 76)" filter="url(#shadow)" font-family="Inter, Segoe UI, Arial, sans-serif">
    <rect width="338" height="238" rx="22" fill="#FFFFFF" stroke="#E5E5E2"/>
    <text x="26" y="38" fill="#6B7280" font-family="ui-monospace, Consolas, monospace" font-size="10" font-weight="700" letter-spacing="1.2">SYSTEM MAP</text>
    <line x1="26" y1="58" x2="312" y2="58" stroke="#E5E5E2"/>
    <g transform="translate(26 82)">
      <rect width="82" height="58" rx="11" fill="#F7F7F5" stroke="#E5E5E2"/>
      <text x="14" y="23" fill="#6B7280" font-size="9" font-weight="700">CONTEXT</text>
      <text x="14" y="43" fill="#111114" font-size="13" font-weight="700">Ingest</text>
      <path d="M89 29H116" stroke="#FF6B35" stroke-width="2"/>
      <path d="M110 23L116 29L110 35" stroke="#FF6B35" stroke-width="2"/>
      <rect x="122" width="82" height="58" rx="11" fill="#FFF0EA" stroke="#FFCCB8"/>
      <text x="136" y="23" fill="#D94D18" font-size="9" font-weight="700">AGENTS</text>
      <text x="136" y="43" fill="#111114" font-size="13" font-weight="700">Reason</text>
      <path d="M211 29H238" stroke="#FF6B35" stroke-width="2"/>
      <path d="M232 23L238 29L232 35" stroke="#FF6B35" stroke-width="2"/>
      <rect x="244" width="68" height="58" rx="11" fill="#F7F7F5" stroke="#E5E5E2"/>
      <text x="256" y="23" fill="#6B7280" font-size="9" font-weight="700">ACTION</text>
      <text x="256" y="43" fill="#111114" font-size="13" font-weight="700">Ship</text>
    </g>
    <rect x="26" y="169" width="286" height="42" rx="10" fill="#F7F7F5"/>
    <circle cx="46" cy="190" r="4" fill="#22A06B"/>
    <text x="60" y="195" fill="#111114" font-size="12" font-weight="650">Data-driven profile build is operational</text>
  </g>
</svg>